<svg xmlns="http://www.w3.org/2000/svg" version="1.1" xmlns:xlink="http://www.w3.org/1999/xlink" xmlns:svgjs="http://svgjs.dev/svgjs" viewBox="0 0 9.637281738281247 9.957322630363054"><g transform="matrix(0.8571428571428571,0,0,0.8571428571428571,1.3767545340401783,7.575422318317031)"><g clip-path="url(#SvgjsClipPath31873)"><g clip-path="url(#SvgjsClipPath318718ae91319-92ca-400a-a9ac-026252457771)"><path d=" M 5.400137302440979 -0.29231247819013184 C 4.36443738559506 -0.7362258842587028 3.730117827670899 -1.2754250796138251 3.5715655093094436 -1.7616693446189187 C 3.3492871432133304 -1.4445279464032286 3.5400057677575534 -0.9793112552684704 3.561014960881497 -0.9688526105724726 C 3.4869589336755737 -1.02149506823387 3.4869589336755737 -1.0534040439671735 3.4556197610803623 -1.0955510954397933 C 3.2438919434121956 -0.7680061947672776 2.9162183775149475 -0.36636850539605526 2.5146909726220663 -0.29231247819013184 C 2.8531172751575555 -0.26053216768155796 3.1065510063849766 -0.4191396282821831 3.339251255684307 -0.4931772747417176 C 3.402444261773651 -0.5144805598079047 3.486958933675571 -0.3981120544118495 3.423802689079008 -0.26053216768155796 C 3.561070103120666 -0.26053216768155796 3.835880642399836 -0.52492082375751 3.878193120589968 -0.5144805598079047 C 3.941680218621553 -0.4931772747417176 3.9730929142023226 -0.34506522032986986 3.941680218621553 -0.25 C 4.057956820285657 -0.28185383349413495 4.247958595720664 -0.44040615185558973 4.237499951024667 -0.5353794684535078 C 4.364327101116719 -0.48260834556737997 4.427832579894696 -0.4085523183614548 4.501576134411986 -0.26053216768155796 C 4.585980521835566 -0.7471072861216745 4.945710109437241 -0.23955973605039382 5.400082160201809 -0.29231247819013184 Z M 4.754973104146627 -4.922036498195341 C 4.6918903825356235 -5.239177896411032 5.2097679120781715 -5.471786241978411 4.765836125263209 -6.127023089294566 C 4.882247519067507 -5.820358716521262 4.871666336062242 -5.566704416337159 4.734092576247415 -5.366060188742255 C 4.6072654261553625 -5.133451843174876 4.564989709458011 -4.953890331689475 4.639137640395886 -4.827191846822155 L 4.639137640395886 -4.8163288257055745 C 4.6836561374378425 -4.840927317017079 4.726036987943548 -4.869209909839686 4.765836125263209 -4.900880259100275 C 4.759685780194792 -4.906378662594086 4.755811495229197 -4.913976456629824 4.754973104146629 -4.9221835441664625 Z M 2.736767150507889 -4.330176464432432 C 3.03218250649042 -4.964422499371032 3.1593956522566664 -4.858622923149316 3.1066429101169284 -5.735935948351292 C 3.074789076622794 -5.440097835201788 3.043045527607 -5.217948134330406 2.969081404133026 -5.091120984238353 C 2.810529085771571 -5.355601544046257 2.4934060683022694 -5.566814700815499 2.039015636791312 -5.69362347016116 C 2.4934060683022694 -5.503309222037522 2.768216607581439 -5.270976587665995 2.8740345645495475 -4.98572578443722 C 2.8740345645495475 -4.900806736114715 2.705023601492093 -4.647299481901732 2.58865509609604 -4.478159853619549 C 2.630655101597539 -4.4255357767045425 2.673206529490743 -4.372360277397831 2.736767150507889 -4.330176464432432 Z M 4.258895139822804 -2.1633621762293096 L 4.258895139822804 -2.1633621762293096 C 4.374840888051885 -2.332373139286762 4.396144173118073 -2.554541220904535 4.2375734740102295 -2.7131119200123797 C 4.099920064294375 -2.8398104048797004 3.867385241712557 -2.9244905034991335 3.6137860837676237 -2.998381103987546 C 3.6563926538999976 -3.1464931583993945 3.7828889505570276 -3.3155960251887975 3.9309091012369253 -3.5059102733124354 C 4.068158134532195 -3.685361500319494 4.184563401421028 -3.9389790390108175 4.1635174468043035 -4.351424607259449 C 4.195279376566487 -4.43597604065415 4.2375734740102295 -4.488692021301107 4.311537597484201 -4.530875834266507 C 4.459649651896051 -4.541426382694455 4.5968986851913165 -4.573151550963858 4.713267190587374 -4.647244339662562 C 4.7635721118368135 -4.671744780140013 4.8098523761862415 -4.703763508629254 4.850516223882642 -4.742199275514089 C 5.156794600981752 -5.038423384337786 5.040830472006282 -5.365986665756694 5.558413909606583 -5.725311876937784 C 4.903177062290427 -5.3342431167408995 5.09358321414602 -5.14381858413892 4.765909648248772 -4.869302136801994 C 4.733346091721735 -4.841150193913293 4.698037126974822 -4.816340319660536 4.660514448447637 -4.795246109596069 C 4.565155136175526 -4.731740630818092 4.459649651896051 -4.6999970818023 4.332528409861756 -4.678987888678355 C 4.216270188944039 -4.827118323836594 4.205829924994433 -5.038423384337786 4.300674576367621 -5.323674187566562 C 4.364382243355891 -5.503254079798351 4.343391430978336 -5.693568327921991 4.248032118706224 -5.88388257604563 C 4.246509195192049 -5.908512270209661 4.235045384576649 -5.93146642803911 4.216270188944044 -5.947479958555557 C 4.170778932250961 -6.029590016080928 4.117807738212388 -6.107327043085611 4.058030343271222 -6.17970230844874 C 4.258895139822804 -5.873423931349633 4.300656195621232 -5.598595011324073 4.1739760915003 -5.344977472632749 C 4.015405392392457 -4.985670642198048 4.079021155648772 -4.827118323836594 4.1635174468043035 -4.626290288777788 C 4.110764704664566 -4.604987003711601 4.068158134532195 -4.552234261571864 4.036690296712253 -4.467701208923552 C 3.888688526778745 -4.689483294867133 3.761879757433084 -4.7213555091076564 3.6350709880874206 -4.879907827469111 C 3.6010344617271577 -4.849667452146377 3.5785820362150598 -4.808525250723196 3.5715655093094436 -4.763539322073056 C 3.9517896291361367 -4.4042141108919655 4.089443038851989 -4.182027648527803 3.7510167363165015 -3.6536179513037004 C 3.719567279242952 -3.611342234606349 3.6246123433914255 -3.548112467024225 3.5820057732590493 -3.5058918925660447 C 3.328351473074947 -3.886207916124689 3.127633722494481 -3.854482747855286 2.715445484695312 -4.28784560549591 C 2.6632428850002094 -4.337984512347937 2.613799510520111 -4.390919234566825 2.567333430283461 -4.44641630460376 C 2.4510752093657486 -4.604987003711601 2.356120273514222 -4.805851800263188 2.3452756331440314 -5.133415081682093 C 2.3242664400200876 -5.05935905447617 2.3242664400200876 -4.879907827469111 2.3242664400200876 -4.795209348103289 C 2.2193537110113133 -4.836606529955244 2.1278806784069277 -4.906119166148383 2.0598961646905236 -4.996110906147656 C 2.1342646645850802 -4.847998851735808 2.2188712402189528 -4.773942824529883 2.3351294611366673 -4.721300366868487 C 2.3665789182102195 -4.615390506168429 2.419680894531368 -4.509921783381733 2.4828371391279314 -4.393626800971239 C 2.4943210521151995 -4.3740092159034765 2.5085577427841304 -4.356139074181213 2.525112855825281 -4.340561586142869 C 2.5673679945812076 -4.27478256752493 2.613192358407211 -4.21136601688999 2.6623802698669414 -4.150596572200643 C 2.905741352072559 -3.8544827478552866 3.6137493222748436 -3.326036289138403 3.254718203035995 -3.1147312286372113 C 2.7049868399993153 -3.3155776444424068 2.5777736942330716 -3.685343119573105 2.6522340978595773 -4.108375997742463 C 2.577773694233069 -4.171587384578197 2.5146725918756747 -4.266946696850308 2.4615154733153544 -4.361901632701835 C 1.9966847778547914 -4.4255173959581535 1.5633035394677752 -4.805851800263188 1.4786969638339027 -5.281527136093944 C 1.4786969638339027 -5.070148552607191 1.5632483972286035 -4.890348091418719 1.6690112119575433 -4.7213371283612675 C 1.5633035394677752 -4.731777392310874 1.4786969638339027 -4.7213371283612675 1.4047328403599288 -4.647281101155343 C 1.5209910612776458 -4.6685843862215295 1.626386261078778 -4.6685843862215295 1.7427547664748333 -4.626290288777789 C 1.9121701059528682 -4.414654374841573 2.1656957409122413 -4.192909050390774 2.472360113685543 -4.171587384578197 C 2.4297535435531716 -4.034338351282929 2.387808680290842 -3.8121702696651565 2.4297535435531716 -3.674902855623498 C 2.377000801413434 -3.621837640795128 2.1871276912031563 -3.4741299628038624 1.7327188789458077 -3.4527163932593354 C 1.5527529910398261 -3.600865209163964 1.425631749005532 -3.6958936680010517 1.1089131079568155 -3.7276555977632357 C 1.2992273560804535 -3.685379881065885 1.415485576998168 -3.6008284476711836 1.6582584753193017 -3.410532580293935 C 1.569004169578527 -3.3230177239988916 1.46034942801515 -3.2578110240541185 1.34113545785 -3.220218332170297 C 1.5317437979158826 -3.230971068808536 1.637249282195358 -3.29416407489788 1.7427547664748333 -3.378789031278142 C 2.1443924558460554 -3.3473395742045913 2.2501920320677704 -3.4210647479754934 2.504232327926069 -3.4845886074998598 C 2.546011764470886 -3.4105325802939355 2.58861833460326 -3.315577644442408 2.641481361221336 -3.2519802619324807 C 2.58861833460326 -3.1779058539801657 2.5146542111292858 -3.1356117565364254 2.377000801413434 -3.0724187504470812 C 2.525112855825281 -3.082950918128639 2.630655101597536 -3.0933911820782445 2.715427103948921 -3.1779058539801657 C 3.381122595961071 -2.575421748803749 3.9517712483897456 -2.7130935392659907 4.258858378330023 -2.1632886532437503 Z M 3.994414580014902 -3.526809181958039 C 4.290234312418015 -3.4001106970907182 4.512402394035788 -3.294182455644269 4.522952942463735 -3.1992459005391316 C 4.268931027351828 -3.1674839707769484 4.079021155648772 -3.0089316524154937 3.9731112949487137 -2.9244169805135725 C 4.121223349360563 -2.8398655471188716 4.205829924994433 -2.818507119813515 4.322088145912147 -2.7022305181494097 C 4.691963905521186 -3.082969298875028 5.07218802534788 -2.998381103987546 5.326209940459787 -3.241558378729263 C 5.45303709055184 -3.125189873333208 5.5692769307231655 -3.082969298875028 5.738287893780615 -3.0406568206848963 C 5.590267743100718 -3.125208254079598 5.495220903517237 -3.1992459005391316 5.400082160201809 -3.315596025188797 C 5.452945186819888 -3.3895601486627704 5.473844095465493 -3.4210096057363213 5.537349574243468 -3.4633037031800615 L 6.171595609182068 -3.4001106970907182 C 6.287945733831735 -3.4001106970907182 6.446516432939578 -3.3155592636960165 6.657821493440771 -3.1569334223490015 C 6.520572460145502 -3.3050454767608497 6.425213147873393 -3.4001106970907182 6.372460405733655 -3.4318726268529014 C 6.552316009161296 -3.579561924097777 6.615527395997031 -3.6327190426580973 6.890448219754541 -3.7276739785096247 C 6.605068751301036 -3.7066831661320707 6.520572460145502 -3.643122545114924 6.2457435401199435 -3.5059102733124354 C 6.024809837833566 -3.5237857065208824 5.807626349852325 -3.573543508485113 5.600946956753392 -3.6536363320500915 C 5.516395523358693 -4.319607535258095 5.844013947016772 -4.657739745851339 6.520572460145502 -4.74225441775326 C 6.150696700536463 -4.75309905812345 5.87540826185115 -4.689501675613522 5.6959018926049225 -4.541481524933625 C 5.7490590111652455 -4.763557702819447 5.685461628655317 -4.869357279041164 5.526799025815519 -5.091065841999184 C 5.674506703806783 -4.837558587786201 5.674506703806783 -4.615390506168429 5.548102310881707 -4.372378658144223 L 5.548102310881707 -4.372378658144223 C 5.452853283087936 -4.213826339782767 5.399990256469858 -4.013071827709522 5.420999449593801 -3.749014025068592 C 5.399990256469858 -3.579580304844167 5.241437938108403 -3.4318910075992917 5.008921496272974 -3.336513314580791 C 4.913856275943107 -3.3473763356973705 4.882094346180923 -3.5373781111323765 4.93486546906705 -3.727692359256015 C 5.019416902461753 -4.076577306487499 4.945618205705289 -4.425554157450934 4.871249705810732 -4.710823341426099 C 4.829359984787574 -4.679061411663916 4.786698272416031 -4.636767314220175 4.7340006725154655 -4.615464029153989 L 4.723542027819469 -4.605023765204382 C 4.829359984787574 -4.150633333693422 4.776294769959206 -3.727692359256015 4.564989709458013 -3.6009019706567433 C 4.448621204061958 -3.579580304844167 4.290068885700503 -3.579580304844167 4.110599277947056 -3.7381510039520123 C 4.078855728931262 -3.664094976746088 4.047093799169076 -3.5904617067071376 3.99424915329739 -3.526772420465259 Z M 3.8358438809070554 -3.9389790390108175 C 3.6455296327834175 -4.108394378488853 3.4765186697259653 -4.47815985361955 3.529179508133754 -4.75309905812345 C 3.5447569234027356 -4.811763860074603 3.5736952346099637 -4.8660294845253755 3.6137309415284546 -4.911651376484905 L 3.6137309415284546 -4.911651376484905 L 3.6245755818986454 -4.922110021180902 C 3.8357887386678864 -5.165177011444277 3.9099550503521527 -5.503309222037522 3.7936784486880493 -5.915773171032543 C 3.8041370933840444 -5.788946020940492 3.8145773573336523 -5.735935948351292 3.8041370933840444 -5.609127179005631 C 3.6664653029218033 -5.672742942261948 3.5610701031206684 -5.788982782433273 3.434353237506957 -6.106105799902572 C 3.508317360980931 -5.8204322395068235 3.624667485630597 -5.609127179005631 3.7828338083178563 -5.52459412635732 C 3.751071878555673 -5.355601544046257 3.6877685879879865 -5.217948134330406 3.561070103120666 -5.070240456339141 C 3.4974543398643485 -5.006606312336434 3.4556749033195313 -4.9538719509430855 3.423802689079008 -4.869357279041164 C 3.2758009191454995 -4.562784809999812 3.3919488555848756 -4.087109474169057 3.7196224214821236 -3.7172337145600185 L 3.73017296991007 -3.7066831661320707 C 3.751071878555671 -3.738132623205622 3.7619348996722533 -3.7699864566997556 3.7828338083178563 -3.8017483864619397 L 3.7828338083178563 -3.8017483864619397 C 3.8041370933840417 -3.84402410315929 3.8254403784502298 -3.8862998198566405 3.846339287095833 -3.9285755365539914 C 3.8463950336756794 -3.9313643899197825 3.8453104440339816 -3.934055246823749 3.8433362989875173 -3.9360259223710106 C 3.841362153941053 -3.9379965979182714 3.8386693933921006 -3.9390764526281727 3.835880642399838 -3.939015800503598 Z M 3.402462642520042 -5.418794550135601 C 3.381159357453856 -5.133433462428485 3.4130131909479884 -5.1228645332541465 3.444738359217391 -4.9748627633206395 C 3.4592102011297006 -4.998435736088028 3.476931951112945 -5.019851579905071 3.4973808168787883 -5.038478526576958 C 3.4656372678629968 -5.091120984238353 3.4129764294552083 -5.1864802965104655 3.402425881027262 -5.418794550135601 Z M 3.635070988087418 -2.575366606564577 C 3.3075077066685106 -1.7511187961909709 4.131645232563777 -0.9901558956386598 4.734239622218536 -0.6939317868149626 C 4.385354674987052 -0.9901558956386598 4.227206733046179 -1.6030986455110732 4.184655305152977 -1.6980352006162107 C 4.248160783930954 -1.6557594839188603 4.300803241592351 -1.4658312314694149 4.353666268210429 -1.3809305638933012 C 4.36451090858062 -2.0047363348822946 4.195408041791216 -2.364061546063385 3.6352180340585414 -2.575366606564578 Z" fill="#181818" transform="matrix(1,0,0,1,0,0)" fill-rule="evenodd"></path></g><g clip-path="url(#SvgjsClipPath318718ae91319-92ca-400a-a9ac-026252457771)"><path d=" M 1.774590219222579 -3.643104164368533 C 1.7914464837435682 -3.605338552656226 1.8056823416004508 -3.56645709618861 1.8171967893549505 -3.526735658972477 C 1.9336081831592506 -3.6217763716404927 1.9018523803125322 -3.7486831716335693 1.7219293808147909 -3.9074560589517064 C 1.7536913105769736 -3.7489221213366415 1.573817326402944 -3.6326455196725367 1.774590219222579 -3.5267356589724788 L 1.774590219222579 -3.643104164368533 Z" fill="#96c53e" transform="matrix(1,0,0,1,0,0)" fill-rule="evenodd"></path></g><g clip-path="url(#SvgjsClipPath318718ae91319-92ca-400a-a9ac-026252457771)"><path d=" M 1.4786602023411226 -3.4208809405115908 C 1.5317070364231022 -3.3999820318659872 1.5632116357358259 -3.3894314834380395 1.5632116357358259 -3.3894314834380395 C 1.4890453240515618 -3.3048800500433386 1.3941087689464218 -3.3363662686096696 1.2882908119783156 -3.4739829168327407 C 1.404640936627982 -3.4525693472882133 1.4999083451681416 -3.5689378526842686 1.5632116357358259 -3.42084417901881 Z" fill="#96c53e" transform="matrix(1,0,0,1,0,0)" fill-rule="evenodd"></path></g><g clip-path="url(#SvgjsClipPath318718ae91319-92ca-400a-a9ac-026252457771)"><path d=" M 5.833628825306335 -3.0088581294299326 C 5.695957034844095 -3.040583297699336 5.6328559324867005 -3.051133846127284 5.6328559324867005 -3.051133846127284 C 5.664617862248883 -2.7976449726606916 5.875481784836713 -2.7340292094043734 6.25625732705511 -2.8503977148004287 C 6.013080052313393 -2.9561972910221472 5.991776767247205 -3.3156144059351877 5.674653749777907 -3.103886588267022 C 5.7808760831665955 -3.040675201431287 5.833628825306333 -3.0089500331618844 5.833628825306333 -3.0089500331618844 Z" fill="#96c53e" transform="matrix(1,0,0,1,0,0)" fill-rule="evenodd"></path></g><g clip-path="url(#SvgjsClipPath318718ae91319-92ca-400a-a9ac-026252457771)"><path d=" M 6.71062937781968 -3.114676086398041 C 6.662470551558645 -3.1346092162356882 6.6164807411708715 -3.159424127987709 6.573380344524409 -3.1887321136039652 C 6.531104627827062 -2.987848936305989 6.678885828803887 -2.8924896240338773 6.985770770533873 -2.8924896240338773 C 6.837750619853975 -3.0193167741259304 6.900943625943318 -3.294108932658709 6.615582538236202 -3.2201631899311254 C 6.678885828803887 -3.1464196354138343 6.71062937781968 -3.114676086398041 6.71062937781968 -3.114676086398041 Z" fill="#96c53e" transform="matrix(1,0,0,1,0,0)" fill-rule="evenodd"></path></g><g clip-path="url(#SvgjsClipPath318718ae91319-92ca-400a-a9ac-026252457771)"><path d=" M 6.974999653149242 -3.769912933714195 C 6.858759812977919 -3.7066096431465105 6.795144049721602 -3.6748477133843265 6.795144049721602 -3.6748477133843265 C 6.974999653149242 -3.494973729210295 7.175864449700829 -3.558589492466613 7.418839536232255 -3.88622629687108 C 7.165313901272882 -3.8226289143611525 6.922265291755898 -4.097604880357833 6.795144049721602 -3.7489956443222017 C 6.911402270639318 -3.7594359082718083 6.974999653149242 -3.7699864566997556 6.974999653149242 -3.7699864566997556 Z" fill="#96c53e" transform="matrix(1,0,0,1,0,0)" fill-rule="evenodd"></path></g><g clip-path="url(#SvgjsClipPath318718ae91319-92ca-400a-a9ac-026252457771)"><path d=" M 6.636885823302386 -4.773924443783494 C 6.457011839128356 -4.710731437694149 6.372515547972824 -4.678969507931965 6.372515547972824 -4.678969507931965 C 6.584249492556453 -4.393614547140313 6.880179509437907 -4.457052629848192 7.260305598617187 -4.869283756055604 C 6.900980387436096 -4.827099943090205 6.61561929972898 -5.249618160360638 6.372515547972824 -4.773924443783494 Z" fill="#96c53e" transform="matrix(1,0,0,1,0,0)" fill-rule="evenodd"></path></g><g clip-path="url(#SvgjsClipPath318718ae91319-92ca-400a-a9ac-026252457771)"><path d=" M 5.674653749777907 -5.8099000718252665 C 5.54824935685283 -5.672669419276387 5.484743878074854 -5.60905365602007 5.484743878074854 -5.60905365602007 C 5.801885276290544 -5.450482956912224 6.03432819514041 -5.65132937271742 6.18251377253782 -6.190528568072542 C 5.875555307822274 -5.9897740559992965 5.432009516681505 -6.221978025146093 5.442449780631111 -5.693549947175599 C 5.517000425081587 -5.737779049531699 5.59459677385686 -5.776660145688388 5.674653749777907 -5.809900071825264 Z" fill="#96c53e" transform="matrix(1,0,0,1,0,0)" fill-rule="evenodd"></path></g><g clip-path="url(#SvgjsClipPath318718ae91319-92ca-400a-a9ac-026252457771)"><path d=" M 4.6814868800788005 -6.264602976024857 C 4.797745100996515 -6.127023089294566 4.8613608642528305 -6.052967062088641 4.8613608642528305 -6.052967062088641 C 5.051270735955885 -6.359649815608336 4.882259772898434 -6.6131754505677085 4.364363862609499 -6.814021866372905 C 4.533466729398901 -6.496825325918043 4.237536712517446 -6.084747372597216 4.765891267502378 -6.021113228594508 C 4.732726729520449 -6.100444707135011 4.704537321582546 -6.181765501332178 4.6814868800788005 -6.264602976024852 Z" fill="#96c53e" transform="matrix(1,0,0,1,0,0)" fill-rule="evenodd"></path></g><g clip-path="url(#SvgjsClipPath318718ae91319-92ca-400a-a9ac-026252457771)"><path d=" M 3.9626342695063252 -6.317337337418204 C 4.047185702901029 -6.148326374360753 4.079002774902383 -6.063407326038248 4.079002774902383 -6.063407326038248 C 3.730117827670899 -6.010654583898511 3.5610149608814945 -6.264602976024857 3.5820057732590493 -6.824774603011142 C 3.8145222150944784 -6.5391010426153935 4.31151921673781 -6.6449189995835 4.14250825368036 -6.137481733990562 L 3.962634269506328 -6.317337337418204 Z" fill="#81ab40" transform="matrix(1,0,0,1,0,0)" fill-rule="evenodd"></path></g><g clip-path="url(#SvgjsClipPath318718ae91319-92ca-400a-a9ac-026252457771)"><path d=" M 1.9543906804110482 -5.735862425365731 C 2.091658094452707 -5.640797205035863 2.1657692638978014 -5.598576630577682 2.1657692638978014 -5.598576630577682 C 1.9122436289384288 -5.387198047090929 1.6583319983048646 -5.514025197182981 1.4155590999837309 -5.96845239018672 C 1.7327924019313707 -5.852102265537056 2.070814328046275 -6.15878501905675 2.1871644526959413 -5.683109683225994 C 2.110546574801621 -5.70466929581157 2.032871239675683 -5.722276768508155 1.9544458226502248 -5.735862425365731 Z" fill="#81ab40" transform="matrix(1,0,0,1,0,0)" fill-rule="evenodd"></path></g><g clip-path="url(#SvgjsClipPath318718ae91319-92ca-400a-a9ac-026252457771)"><path d=" M 1.2461989027448652 -4.573151550963858 C 1.4155039577445594 -4.615427267661209 1.4891556085299 -4.636675410488225 1.4891556085299 -4.636675410488225 C 1.4787153445802916 -4.309093748322927 1.2146391611929723 -4.203294172101209 0.7176605402960301 -4.330102941446872 C 1.0138846491197286 -4.478086330633989 1.0138846491197286 -4.943027310572896 1.4364947701221116 -4.7107314376941485 C 1.3096676200300617 -4.626180004299448 1.2461989027448652 -4.573151550963857 1.2461989027448652 -4.573151550963857 Z" fill="#96c53e" transform="matrix(1,0,0,1,0,0)" fill-rule="evenodd"></path></g><g clip-path="url(#SvgjsClipPath318718ae91319-92ca-400a-a9ac-026252457771)"><path d=" M 3.1171750777984837 -5.799349523397318 C 3.127633722494481 -5.661788017413418 3.1384783628646717 -5.588136366628077 3.1384783628646717 -5.588136366628077 C 3.381104215214685 -5.70439458754579 3.381104215214685 -5.92615829274298 3.148532631140084 -6.275043239974463 C 3.1171750777984837 -6.000214319948904 2.7681982268350502 -5.862560910233053 3.0639811977453832 -5.60905365602007 C 3.095724746761177 -5.735880806112121 3.117138316305706 -5.799349523397318 3.117138316305706 -5.799349523397318 Z" fill="#96c53e" transform="matrix(1,0,0,1,0,0)" fill-rule="evenodd"></path></g><g clip-path="url(#SvgjsClipPath318718ae91319-92ca-400a-a9ac-026252457771)"><path d=" M 5.505642786720454 -5.133359939442924 C 5.569258549976771 -5.059303912237 5.6010020989925655 -5.017101718525209 5.6010020989925655 -5.017101718525209 C 5.706507583272041 -5.175654036886665 5.611552647420512 -5.313215542870566 5.3366318236630015 -5.42949214453467 C 5.421183257057702 -5.260168708788586 5.262888269145711 -5.0384050035913965 5.5482493568528275 -5.006532789350872 C 5.516505807837034 -5.0910842227455735 5.505642786720454 -5.133359939442924 5.505642786720454 -5.133359939442924 Z" fill="#96c53e" transform="matrix(1,0,0,1,0,0)" fill-rule="evenodd"></path></g><g clip-path="url(#SvgjsClipPath318718ae91319-92ca-400a-a9ac-026252457771)"><path d=" M 3.4129948102015972 -6.169225283006355 C 3.4174399171770284 -6.123102652690721 3.4245529252044293 -6.077276223924018 3.4342980952677804 -6.031976249711089 C 3.254736583782384 -6.063407326038248 3.212038109918061 -6.211537761196487 3.3283882345677274 -6.47590803652605 C 3.381140976707465 -6.2960524330984065 3.635070988087418 -6.264529453039296 3.476500288979574 -6.052967062088641 C 3.4342245722822247 -6.127023089294566 3.4129948102015972 -6.169225283006355 3.4129948102015972 -6.169225283006355 Z" fill="#96c53e" transform="matrix(1,0,0,1,0,0)" fill-rule="evenodd"></path></g><g clip-path="url(#SvgjsClipPath318718ae91319-92ca-400a-a9ac-026252457771)"><path d=" M 3.402444261773651 -5.482226505928018 C 3.391893713345704 -5.408170478722094 3.381140976707465 -5.365968285010304 3.381140976707465 -5.365968285010304 C 3.2547365837823863 -5.440024312216228 3.2648827557897477 -5.56674117782994 3.423747546839836 -5.735862425365732 C 3.4129948102015972 -5.588136366628078 3.5928504136292405 -5.492795435102357 3.4129948102015972 -5.376408548959911 C 3.413408348804163 -5.411963111491438 3.4098697865244327 -5.447453534913744 3.402444261773651 -5.482226505928019 Z" fill="#96c53e" transform="matrix(1,0,0,1,0,0)" fill-rule="evenodd"></path></g><g clip-path="url(#SvgjsClipPath318718ae91319-92ca-400a-a9ac-026252457771)"><path d=" M 5.072096121615928 -5.640797205035863 C 5.0489711223182026 -5.6179731415582435 5.027859086390584 -5.5931958643219 5.008995019258537 -5.56674117782994 C 5.125247113260786 -5.514049704844835 5.209853688894657 -5.58810573205076 5.262814746160151 -5.788909259447712 C 5.146556525242434 -5.714853232241788 4.987691734192349 -5.788909259447712 4.998536374562537 -5.598576630577682 C 5.051197212970325 -5.630356941086256 5.072059360123148 -5.640852347275033 5.072059360123148 -5.640852347275033 Z" fill="#96c53e" transform="matrix(1,0,0,1,0,0)" fill-rule="evenodd"></path></g><g clip-path="url(#SvgjsClipPath318718ae91319-92ca-400a-a9ac-026252457771)"><path d=" M 5.040848852752669 -6.644863857344331 C 5.083124569450018 -6.539045900376223 5.114923260704983 -6.47585289428688 5.114923260704983 -6.47585289428688 C 5.283915843016044 -6.634423593394724 5.231163100876307 -6.824719460771973 4.94582039391558 -7.046501546715553 C 4.987820399417078 -6.813966724133733 4.734202860725754 -6.613120308328538 5.051325878195055 -6.47585289428688 C 5.040867233499058 -6.592111115204593 5.040867233499058 -6.644863857344331 5.040867233499058 -6.644863857344331 Z" fill="#96c53e" transform="matrix(1,0,0,1,0,0)" fill-rule="evenodd"></path></g><g clip-path="url(#SvgjsClipPath318718ae91319-92ca-400a-a9ac-026252457771)"><path d=" M 5.949978949955999 -5.038386622845007 C 5.919553396610194 -4.948350605789526 5.8841966650032695 -4.860056955825614 5.844069089255946 -4.77390606303711 C 6.203504584915372 -4.7421625140213095 6.351506354848881 -5.006514408604483 6.308899784716507 -5.566722797083548 C 6.097686627947266 -5.270792780202093 5.5902126008615465 -5.344940711139969 5.780876083166597 -4.848035613228587 C 5.896821831395679 -4.9748627633206395 5.949978949956002 -5.038460145830566 5.949978949956002 -5.038460145830566 Z" fill="#81ab40" transform="matrix(1,0,0,1,0,0)" fill-rule="evenodd"></path></g><g clip-path="url(#SvgjsClipPath318718ae91319-92ca-400a-a9ac-026252457771)"><path d=" M 6.509764581268094 -5.260168708788586 C 6.467874860244936 -5.154663224509111 6.4465715751787505 -5.101598009680741 6.4465715751787505 -5.101598009680741 C 6.668629372318182 -5.080625578049577 6.763694592648052 -5.239177896411032 6.731932662885867 -5.598576630577682 C 6.605105512793814 -5.408170478722094 6.288000876070904 -5.460923220861831 6.404369381466959 -5.14380020339253 C 6.441865451758762 -5.180380862656712 6.477064313022029 -5.2192444815366805 6.509764581268094 -5.260168708788587 Z" fill="#96c53e" transform="matrix(1,0,0,1,0,0)" fill-rule="evenodd"></path></g><g clip-path="url(#SvgjsClipPath318718ae91319-92ca-400a-a9ac-026252457771)"><path d=" M 6.245798682359115 -5.746707065735922 C 6.203522965661763 -5.672669419276387 6.18251377253782 -5.630356941086257 6.18251377253782 -5.630356941086257 C 6.340753618210644 -5.598576630577684 6.425268290112562 -5.704394587545792 6.436168072721922 -5.957901841758774 C 6.3198179480722585 -5.84166200158745 6.097741770186435 -5.905259384097377 6.150806985014806 -5.672669419276387 C 6.184625291920931 -5.694476778442535 6.216433330228861 -5.719253954676211 6.245853824598287 -5.746707065735922 Z" fill="#96c53e" transform="matrix(1,0,0,1,0,0)" fill-rule="evenodd"></path></g><g clip-path="url(#SvgjsClipPath318718ae91319-92ca-400a-a9ac-026252457771)"><path d=" M 5.6855167708944885 -6.253739954908277 C 5.643241054197137 -6.179683927702353 5.622011292116509 -6.148326374360753 5.622011292116509 -6.148326374360753 C 5.780876083166597 -6.106050657663401 5.8653723743221295 -6.211537761196487 5.886381567446073 -6.47590803652605 C 5.770123346528359 -6.349080886433997 5.54817583386727 -6.422842821697679 5.590249362354329 -6.179683927702353 C 5.620736021169895 -6.205959994271172 5.652532460716579 -6.230676925572271 5.6855167708944885 -6.253739954908276 Z" fill="#96c53e" transform="matrix(1,0,0,1,0,0)" fill-rule="evenodd"></path></g><g clip-path="url(#SvgjsClipPath318718ae91319-92ca-400a-a9ac-026252457771)"><path d=" M 5.8653723743221295 -3.801674863476379 C 5.780820940927426 -3.717123430081678 5.7382695130342265 -3.6748477133843265 5.7382695130342265 -3.6748477133843265 C 5.949978949956002 -3.558589492466613 6.108145272643263 -3.6852879773339335 6.213963229611371 -4.044723472993365 C 6.013080052313396 -3.917896322901312 5.727810868338229 -4.086999189690715 5.71726031991028 -3.738059100220061 C 5.81232554024015 -3.780334816917412 5.8653723743221295 -3.801674863476379 5.8653723743221295 -3.801674863476379 Z" fill="#96c53e" transform="matrix(1,0,0,1,0,0)" fill-rule="evenodd"></path></g><g clip-path="url(#SvgjsClipPath318718ae91319-92ca-400a-a9ac-026252457771)"><path d=" M 4.089443038851989 -6.78216803287877 C 4.13133133040541 -6.722691615348288 4.177334521646747 -6.666222544550845 4.227114829314227 -6.613175450567709 C 4.374822507305494 -6.845783796135087 4.258876759076413 -7.0360980442587255 3.8673668609661656 -7.205035484330618 C 3.9835331781519305 -6.96195011332085 3.7510167363165015 -6.655451167265059 4.152636044941332 -6.592092734458204 C 4.110746323918175 -6.718919884550255 4.089443038851989 -6.782094509893208 4.089443038851989 -6.782094509893208 Z" fill="#96c53e" transform="matrix(1,0,0,1,0,0)" fill-rule="evenodd"></path></g><g clip-path="url(#SvgjsClipPath318718ae91319-92ca-400a-a9ac-026252457771)"><path d=" M 4.670642239708609 -5.672669419276387 C 4.695004727502016 -5.631283611722981 4.72326150929274 -5.592317441930543 4.755028246385801 -5.556300913880332 C 4.586035664074737 -5.492795435102355 4.480622083527214 -5.60905365602007 4.448768250033079 -5.883864195299239 C 4.575595400125129 -5.7676059743815244 4.818754294120456 -5.862560910233053 4.776441815930327 -5.598576630577682 C 4.713248809840981 -5.640852347275033 4.670642239708609 -5.672669419276387 4.670642239708609 -5.672669419276387 Z" fill="#81ab40" transform="matrix(1,0,0,1,0,0)" fill-rule="evenodd"></path></g><g clip-path="url(#SvgjsClipPath318718ae91319-92ca-400a-a9ac-026252457771)"><path d=" M 5.252227436239422 -3.7912162187803826 C 5.283892127633421 -3.7667426398721178 5.312305290725857 -3.7383294767796804 5.336778869634123 -3.706664785385681 C 5.209951719542072 -3.6431593066077044 5.1041705240667445 -3.7172153338136287 5.04095913723101 -3.938960658264428 C 5.167786287323062 -3.854409224869727 5.347641890750703 -3.9602823240770046 5.347641890750703 -3.748977263575812 C 5.314240405307643 -3.7591008432347746 5.282212884972521 -3.7732996282715483 5.252282578478593 -3.7912529802731627 Z" fill="#96c53e" transform="matrix(1,0,0,1,0,0)" fill-rule="evenodd"></path></g><g clip-path="url(#SvgjsClipPath318718ae91319-92ca-400a-a9ac-026252457771)"><path d=" M 5.484743878074854 -4.583610195659855 C 5.537404716482639 -4.530857453520117 5.5692953114695545 -4.499058762265154 5.5692953114695545 -4.499058762265154 C 5.432046278174285 -4.435847375429419 5.336668585155785 -4.509903402635343 5.273163106377807 -4.731667107832532 C 5.389421327295522 -4.647115674437831 5.5692953114695545 -4.752970392898719 5.580121571093354 -4.541352859708894 C 5.549304523168144 -4.557471728753013 5.517483097360333 -4.571592755061709 5.484854162553192 -4.583628576406246 Z" fill="#96c53e" transform="matrix(1,0,0,1,0,0)" fill-rule="evenodd"></path></g><g clip-path="url(#SvgjsClipPath318718ae91319-92ca-400a-a9ac-026252457771)"><path d=" M 5.12540028614737 -4.181972506288633 C 5.086731071202449 -4.1503904088250385 5.051285365067336 -4.115055528243243 5.019582329179266 -4.076485402755548 C 5.188593292236716 -3.9919339693608467 5.326265082698956 -4.087035951183496 5.410761373854488 -4.382855683586609 C 5.241658507065086 -4.277350199307134 5.009142065229657 -4.414599232602402 4.998683420533663 -4.129201383402505 C 5.039091990168269 -4.150890010788446 5.0815351090309955 -4.168553095792387 5.1254002861473715 -4.181935744795853 Z" fill="#96c53e" transform="matrix(1,0,0,1,0,0)" fill-rule="evenodd"></path></g><g clip-path="url(#SvgjsClipPath318718ae91319-92ca-400a-a9ac-026252457771)"><path d=" M 6.573380344524411 -3.896611418581516 C 6.457011839128356 -3.822555391375592 6.4042774777350076 -3.7912162187803817 6.4042774777350076 -3.7912162187803817 C 6.340661714478689 -4.034283209043758 6.499232413586536 -4.160981693911078 6.890411458261761 -4.192853908151603 C 6.710537474087729 -4.012979923977571 6.816355431055835 -3.685287977333933 6.456919935396404 -3.7593623852862477 C 6.53097596260233 -3.8439138186809485 6.573288440792462 -3.896611418581516 6.573288440792462 -3.896611418581516 Z" fill="#96c53e" transform="matrix(1,0,0,1,0,0)" fill-rule="evenodd"></path></g><g clip-path="url(#SvgjsClipPath318718ae91319-92ca-400a-a9ac-026252457771)"><path d=" M 2.429771924299563 -5.905259384097377 C 2.4700656118589293 -5.8210840333284 2.5160250265466573 -5.739740045226632 2.5673334302834654 -5.6617880174134125 C 2.810510705025182 -5.915699648046984 2.6941605803755158 -6.201097497246881 2.218871240218955 -6.496825325918043 C 2.32426644002009 -6.15878501905675 1.9648493251070456 -5.799349523397319 2.4723784944319367 -5.65131099197103 C 2.4405246609378044 -5.820413858760433 2.4297719242995655 -5.905241003350987 2.4297719242995655 -5.905241003350987 Z" fill="#96c53e" transform="matrix(1,0,0,1,0,0)" fill-rule="evenodd"></path></g><g clip-path="url(#SvgjsClipPath318718ae91319-92ca-400a-a9ac-026252457771)"><path d=" M 1.468275080630686 -5.355528021060696 L 1.468275080630686 -5.186425154271294 C 1.256639166694471 -5.249636541107029 1.2356483543169186 -5.4400794544553985 1.4047512211063202 -5.735880806112121 C 1.4470269378036695 -5.524502222625368 1.7427731472212222 -5.440042692962617 1.5210094420240348 -5.207434347395238 C 1.5070229494058014 -5.258011144976842 1.4893989074261182 -5.3075108069748484 1.468275080630686 -5.3555464018070875 Z" fill="#96c53e" transform="matrix(1,0,0,1,0,0)" fill-rule="evenodd"></path></g><g clip-path="url(#SvgjsClipPath318718ae91319-92ca-400a-a9ac-026252457771)"><path d=" M 2.007143422550786 -5.07016693335358 C 2.0598961646905236 -4.943027310572896 2.091694855945487 -4.879852685229942 2.091694855945487 -4.879852685229942 C 1.8273245806159255 -4.8585494001637555 1.7113604516404528 -5.048845267541003 1.7536729298305849 -5.460923220861831 C 1.9122252481920399 -5.249544637375078 2.282009104069127 -5.291930638550769 2.1343014260778608 -4.932476762144948 C 2.049492662233698 -5.0278728359098395 2.007180184043566 -5.07016693335358 2.007180184043566 -5.07016693335358 Z" fill="#96c53e" transform="matrix(1,0,0,1,0,0)" fill-rule="evenodd"></path></g><g clip-path="url(#SvgjsClipPath318718ae91319-92ca-400a-a9ac-026252457771)"><path d=" M 2.3665789182102195 -5.196975702699242 C 2.3551705607794173 -5.1675281204399575 2.341016252861813 -5.139219504604753 2.3243032015128677 -5.11242426930454 C 2.239751768118167 -5.196975702699242 2.27155045937313 -5.302444425485937 2.4298086857923433 -5.408244001707654 C 2.3983592287187934 -5.29200416153633 2.5360310191810345 -5.175727559872225 2.356157035007005 -5.11242426930454 C 2.3615380400843904 -5.1403412341490835 2.3650321664757037 -5.168589004623676 2.3666156797029996 -5.196975702699242 Z" fill="#96c53e" transform="matrix(1,0,0,1,0,0)" fill-rule="evenodd"></path></g><g clip-path="url(#SvgjsClipPath318718ae91319-92ca-400a-a9ac-026252457771)"><path d=" M 2.884456447752762 -6.327777601367812 C 2.9477597383204466 -6.201097497246881 2.979521668082632 -6.127023089294566 2.979521668082632 -6.127023089294566 C 3.191139201272458 -6.317337337418204 3.1171750777984837 -6.549964063731974 2.7681430845958785 -6.8140218663729035 C 2.821300203156201 -6.528660778665786 2.5146358303828946 -6.28559378840241 2.905704590579781 -6.127023089294566 C 2.8948599502095904 -6.264602976024857 2.884401305513593 -6.327777601367812 2.884401305513593 -6.327777601367812 Z" fill="#96c53e" transform="matrix(1,0,0,1,0,0)" fill-rule="evenodd"></path></g><g clip-path="url(#SvgjsClipPath318718ae91319-92ca-400a-a9ac-026252457771)"><path d=" M 3.381067453721902 -6.708516382093429 C 3.3918201903601437 -6.592166257443765 3.3918201903601437 -6.539101042615394 3.3918201903601437 -6.539101042615394 C 3.169756266305247 -6.592172384359228 3.138006590373991 -6.782529520891111 3.296571162566373 -7.110172452211041 C 3.3600766413443495 -6.887985989846878 3.6663366376970687 -6.814021866372905 3.4446832169782198 -6.560404327681581 C 3.4024075002808702 -6.666222284649689 3.381067453721902 -6.708516382093429 3.381067453721902 -6.708516382093429 Z" fill="#96c53e" transform="matrix(1,0,0,1,0,0)" fill-rule="evenodd"></path></g><g clip-path="url(#SvgjsClipPath318718ae91319-92ca-400a-a9ac-026252457771)"><path d=" M 1.6795801411318811 -4.256046914240947 C 1.8272878191231452 -4.287790463256741 1.8909587246186343 -4.309093748322927 1.8909587246186343 -4.309093748322927 C 1.8699679122410795 -4.023420187927178 1.647799830623307 -3.9389055160252573 1.22496914066424 -4.066026758059552 C 1.4787888675658547 -4.181972506288633 1.4892291315154629 -4.573151550963858 1.848646246428505 -4.361846490462665 C 1.794674345488037 -4.322945094886249 1.7382237804391638 -4.287603627361634 1.6796536641174464 -4.256046914240949 Z" fill="#81ab40" transform="matrix(1,0,0,1,0,0)" fill-rule="evenodd"></path></g><g clip-path="url(#SvgjsClipPath318718ae91319-92ca-400a-a9ac-026252457771)"><path d=" M 1.2248956176786772 -5.080662339542357 C 1.3728973876121855 -5.038435638168714 1.4469166533253288 -5.0172610183272575 1.4469534148181113 -5.017138480017991 C 1.2884010964566563 -4.773961205276274 1.0347835577653317 -4.816273683466404 0.7072018956000354 -5.1438369648853115 C 1.0030216280031488 -5.11238750781176 1.2248956176786772 -5.471823003471191 1.4364947701221142 -5.0910842227455735 C 1.365813455405926 -5.092023153316747 1.2951425708664281 -5.088542403530968 1.2248956176786772 -5.080662339542356 Z" fill="#96c53e" transform="matrix(1,0,0,1,0,0)" fill-rule="evenodd"></path></g><g clip-path="url(#SvgjsClipPath318718ae91319-92ca-400a-a9ac-026252457771)"><path d=" M 2.028134234928341 -6.148326374360753 C 2.0486686508198213 -6.1102529119531255 2.0736313204729377 -6.074740028482205 2.1025027348228997 -6.042526798139034 C 1.933510152511839 -6.000251081441684 1.848572723442942 -6.116472540866618 1.8381324594933361 -6.370090079557941 C 1.9543906804110507 -6.253739954908277 2.1763381930721395 -6.317337337418204 2.1234016434685006 -6.074270347154828 C 2.0598961646905236 -6.127023089294566 2.028134234928341 -6.148326374360753 2.028134234928341 -6.148326374360753 Z" fill="#96c53e" transform="matrix(1,0,0,1,0,0)" fill-rule="evenodd"></path></g><g clip-path="url(#SvgjsClipPath318718ae91319-92ca-400a-a9ac-026252457771)"><path d=" M 2.260669057510159 -4.066045138805942 C 2.303326172578106 -4.064946027697891 2.34597737183815 -4.068452534326841 2.387882203276405 -4.076503783501938 C 2.3452756331440314 -3.907400916712536 2.2080082191023753 -3.88617115463191 1.9648493251070456 -4.002447756296014 C 2.1342646645850802 -4.044723472993365 2.1762279085937988 -4.277368580053524 2.3665789182102195 -4.108339236249682 C 2.2925228910042934 -4.076503783501938 2.260669057510161 -4.066063519552332 2.260669057510161 -4.066063519552332 Z" fill="#96c53e" transform="matrix(1,0,0,1,0,0)" fill-rule="evenodd"></path></g><g clip-path="url(#SvgjsClipPath318718ae91319-92ca-400a-a9ac-026252457771)"><path d=" M 2.028134234928341 -4.647225958916172 C 2.0229409683309973 -4.619289664878265 2.019557992331984 -4.591047034033495 2.0180064436673684 -4.562674525521469 C 2.1234016434685006 -4.583573434167075 2.1444108365924444 -4.6684924824895795 2.0707591858071037 -4.827063181597424 C 2.0389972560449205 -4.721245224629316 1.890885201633074 -4.6999419395631294 1.99670315860118 -4.573114789471077 C 2.0089461625662213 -4.597019084924839 2.0194503994303314 -4.621774684084116 2.028134234928341 -4.647189197423392 Z" fill="#96c53e" transform="matrix(1,0,0,1,0,0)" fill-rule="evenodd"></path></g><g clip-path="url(#SvgjsClipPath318718ae91319-92ca-400a-a9ac-026252457771)"><path d=" M 3.2438919434121956 -4.298230727206348 C 3.280481145414544 -4.28377419939128 3.3157454244171047 -4.26616666001487 3.3492871432133278 -4.24560665029134 C 3.233028922295616 -4.129238144895286 3.1171750777984837 -4.181972506288633 2.979521668082634 -4.393608420224849 C 3.1384783628646744 -4.340543205396479 3.2861860408559385 -4.5099585448745145 3.36015016432991 -4.287790463256741 C 3.32165558998551 -4.293712367276393 3.2828257016560833 -4.297199383335067 3.2438919434121907 -4.298230727206348 Z" fill="#96c53e" transform="matrix(1,0,0,1,0,0)" fill-rule="evenodd"></path></g><g clip-path="url(#SvgjsClipPath318718ae91319-92ca-400a-a9ac-026252457771)"><path d=" M 3.032164125744029 -4.657666222865779 C 3.0054142312613767 -4.640964139916038 2.9771554595878245 -4.626810138424494 2.947759738320449 -4.615390506168428 C 3.032164125744029 -4.530839072773727 3.1384783628646717 -4.562729667760641 3.2438919434121956 -4.731740630818093 C 3.1171750777984837 -4.689464914120742 3.00082495314882 -4.816292064212794 2.947759738320449 -4.647189197423391 C 2.975535414211693 -4.65312893484364 3.0037783111952163 -4.65662239422662 3.032164125744029 -4.6576294613729985 Z" fill="#96c53e" transform="matrix(1,0,0,1,0,0)" fill-rule="evenodd"></path></g><g clip-path="url(#SvgjsClipPath318718ae91319-92ca-400a-a9ac-026252457771)"><path d=" M 2.7050052207457065 -4.996110906147656 C 2.7681982268350502 -4.964367357131863 2.7895566541404073 -4.953835189450305 2.7895566541404073 -4.953835189450305 C 2.7050052207457065 -4.869283756055603 2.6097010507127667 -4.911559472752954 2.504305850911632 -5.070203694846359 C 2.6204537873510056 -5.038441765084176 2.7469317032616445 -5.165140249951497 2.8001072025683538 -4.9856522614516585 C 2.7687198549337526 -4.991431511504484 2.7369538165738097 -4.994920799802385 2.7050603629848755 -4.996092525401266 Z" fill="#81ab40" transform="matrix(1,0,0,1,0,0)" fill-rule="evenodd"></path></g><g clip-path="url(#SvgjsClipPath318718ae91319-92ca-400a-a9ac-026252457771)"><path d=" M 2.5460301452172773 -6.539101042615394 C 2.5597686976623266 -6.498664287122188 2.5775469044271055 -6.459714803995332 2.599095360045646 -6.422842821697679 C 2.429771924299563 -6.401833628573736 2.3665789182102195 -6.528660778665787 2.387882203276405 -6.78216803287877 C 2.482837139127934 -6.644918999583502 2.715445484695312 -6.676772833077637 2.6306367208511476 -6.454604751459863 C 2.5777920749794605 -6.507651585541843 2.546085287456447 -6.539156184854565 2.546085287456447 -6.539156184854565 Z" fill="#96c53e" transform="matrix(1,0,0,1,0,0)" fill-rule="evenodd"></path></g><g clip-path="url(#SvgjsClipPath318718ae91319-92ca-400a-a9ac-026252457771)"><path d=" M 4.121204968614172 -5.556300913880332 C 4.163480685311523 -5.503235699051961 4.184508259181856 -5.47174948048563 4.184508259181856 -5.47174948048563 C 4.0472408451402 -5.429473763788279 3.9731296756951027 -5.514025197182981 3.941735360860725 -5.725256734698612 C 4.0472408451402 -5.6303201795934745 4.22711482931423 -5.704357826053009 4.205811544248045 -5.50319893755918 C 4.152636044941332 -5.534924105828583 4.12126011085334 -5.55626415238755 4.12126011085334 -5.55626415238755 Z" fill="#96c53e" transform="matrix(1,0,0,1,0,0)" fill-rule="evenodd"></path></g><g clip-path="url(#SvgjsClipPath318718ae91319-92ca-400a-a9ac-026252457771)"><path d=" M 3.8040819511448727 -4.911559472752955 C 3.7854962664153256 -4.881600694064173 3.7643465086502466 -4.853310817437432 3.740870564309138 -4.827008039358253 C 3.878137978350796 -4.773832540051543 3.9517896291361367 -4.869191852323653 3.9834964166591504 -5.080533674317627 C 3.878101216858016 -4.985560357719709 3.698227232683986 -5.05921200850505 3.7300810661781183 -4.858457496431805 C 3.756573347771012 -4.873418701998089 3.7813719139609576 -4.8911979921218425 3.80404518965209 -4.911485949767394 Z" fill="#81ab40" transform="matrix(1,0,0,1,0,0)" fill-rule="evenodd"></path></g><g clip-path="url(#SvgjsClipPath318718ae91319-92ca-400a-a9ac-026252457771)"><path d=" M 4.3433730502319445 -4.245606650291341 C 4.279757286975627 -4.181972506288633 4.248013737959836 -4.150541429961473 4.248013737959836 -4.150541429961473 C 4.4065660563212905 -4.076485402755549 4.522934561717346 -4.160981693911079 4.5968803044449285 -4.414599232602402 C 4.448768250033082 -4.330047799207701 4.237555093263838 -4.446361162364586 4.237555093263838 -4.192853908151603 C 4.271264033971782 -4.213414227738752 4.306664948887521 -4.231062417040155 4.3433730502319445 -4.245606650291341 Z" fill="#81ab40" transform="matrix(1,0,0,1,0,0)" fill-rule="evenodd"></path></g><g clip-path="url(#SvgjsClipPath318718ae91319-92ca-400a-a9ac-026252457771)"><path d=" M 4.4065660563212905 -3.9284652520756507 C 4.422820973977119 -3.90620282004834 4.440549073060035 -3.8850543707093848 4.459631271149659 -3.8651619615079658 C 4.364363862609499 -3.822555391375592 4.3006561956212295 -3.8757125099359135 4.248013737959832 -4.034264828297368 C 4.3433730502319445 -3.9706490650410498 4.469777443157023 -4.044705092246975 4.469777443157023 -3.896593037835126 C 4.427887722133865 -3.917896322901312 4.4065660563212905 -3.92844687132926 4.4065660563212905 -3.92844687132926 Z" fill="#96c53e" transform="matrix(1,0,0,1,0,0)" fill-rule="evenodd"></path></g><g clip-path="url(#SvgjsClipPath318718ae91319-92ca-400a-a9ac-026252457771)"><path d=" M 2.926768925942894 -5.418721027150042 C 2.93075071819742 -5.3794537761853665 2.9377686534430154 -5.340554012521075 2.947759738320449 -5.3023709025003765 C 2.8000520603291847 -5.313215542870566 2.7468949417688644 -5.429492144534671 2.821355345395373 -5.661788017413418 C 2.8844564477527648 -5.524520603371759 3.0957615082539576 -5.5140803394221525 2.979521668082634 -5.323582283834613 C 2.958511505724155 -5.353244728567947 2.940821289871544 -5.385124100132305 2.926768925942894 -5.418647504164481 Z" fill="#96c53e" transform="matrix(1,0,0,1,0,0)" fill-rule="evenodd"></path></g><g clip-path="url(#SvgjsClipPath318718ae91319-92ca-400a-a9ac-026252457771)"><path d=" M 4.3433730502319445 -5.059303912237 C 4.322100296045342 -5.03140878679141 4.297038417731427 -5.00661911846165 4.268912646605438 -4.9856522614516585 C 4.3852627712551016 -4.922036498195341 4.480622083527214 -4.9856522614516585 4.544237846783531 -5.186406773524904 C 4.427887722133865 -5.112350746318981 4.268912646605436 -5.217874611344845 4.258876759076415 -5.017101718525209 C 4.28960510297674 -5.025394958601479 4.318356594069906 -5.0397707041480615 4.343428192471116 -5.05937743522256 Z" fill="#96c53e" transform="matrix(1,0,0,1,0,0)" fill-rule="evenodd"></path></g><g clip-path="url(#SvgjsClipPath318718ae91319-92ca-400a-a9ac-026252457771)"><path d=" M 5.231126339383529 -6.127023089294566 C 5.209823054317343 -5.96845239018672 5.199382790367735 -5.883864195299239 5.199382790367735 -5.883864195299239 C 5.516511934752498 -5.936555668284344 5.59043316981823 -6.200858547543808 5.421146495564927 -6.676772833077636 C 5.30488827464721 -6.370090079557941 4.850497843136253 -6.317337337418204 5.125326763161811 -5.92615829274298 C 5.199382790367735 -6.063407326038248 5.231126339383529 -6.127023089294566 5.231126339383529 -6.127023089294566 Z" fill="#81ab40" transform="matrix(1,0,0,1,0,0)" fill-rule="evenodd"></path></g><g clip-path="url(#SvgjsClipPath318718ae91319-92ca-400a-a9ac-026252457771)"><path d=" M 3.7827786660786846 -5.947461577809166 L 3.7827786660786846 -5.862560910233053 C 3.677273181799209 -5.894414743727188 3.6664101606826294 -5.989774055999297 3.740870564309138 -6.137481733990563 C 3.77232002138269 -6.031976249711088 3.920432075794537 -6.000214319948904 3.8145222150944784 -5.883827433806459 C 3.7936233064488754 -5.92610315050381 3.7827786660786846 -5.947424816316385 3.7827786660786846 -5.947424816316385 Z" fill="#96c53e" transform="matrix(1,0,0,1,0,0)" fill-rule="evenodd"></path></g><g clip-path="url(#SvgjsClipPath318718ae91319-92ca-400a-a9ac-026252457771)"><path d=" M 6.055466053489086 -4.351406226513059 C 5.918217020193817 -4.372286754412272 5.8546012569374986 -4.38285568358661 5.8546012569374986 -4.38285568358661 C 5.896876973634848 -4.129201383402505 6.097760150932826 -4.076485402755549 6.478094555237862 -4.20329417210121 C 6.235321656916729 -4.298230727206348 6.203578107900935 -4.657666222865779 5.8864550904316335 -4.435902517668589 C 5.991850290232771 -4.38285568358661 6.055466053489088 -4.3513510842738885 6.055466053489088 -4.3513510842738885 Z" fill="#81ab40" transform="matrix(1,0,0,1,0,0)" fill-rule="evenodd"></path></g><g clip-path="url(#SvgjsClipPath318718ae91319-92ca-400a-a9ac-026252457771)"><path d=" M 5.548249356852829 -4.372305135158662 L 5.548249356852829 -4.372305135158662 L 5.548249356852829 -4.372305135158662 L 5.548249356852829 -4.372305135158662 Z" fill="#96c53e" transform="matrix(1,0,0,1,0,0)" fill-rule="evenodd"></path></g><g clip-path="url(#SvgjsClipPath318718ae91319-92ca-400a-a9ac-026252457771)"><path d=" M 1.0347835577653317 -3.7380591002200614 C 1.151133682414998 -3.6852879773339335 1.2146391611929723 -3.6640030730141375 1.2146391611929723 -3.6640030730141375 C 1.0453341061932782 -3.4845334652606885 0.8549095735912995 -3.5372862074004265 0.6122469597485065 -3.843858676441779 C 0.8548728120985193 -3.8015829597444286 1.0770776552090722 -4.066026758059552 1.2146391611929723 -3.727600455524065 C 1.0983809402752578 -3.7380591002200614 1.0347835577653317 -3.7380591002200614 1.0347835577653317 -3.7380591002200614 Z" fill="#96c53e" transform="matrix(1,0,0,1,0,0)" fill-rule="evenodd"></path></g><g clip-path="url(#SvgjsClipPath318718ae91319-92ca-400a-a9ac-026252457771)"><path d=" M 1.2566391666944734 -3.1778507117409953 C 1.3837604087287678 -3.1991723775535723 1.4469534148181113 -3.2096310222495683 1.4469534148181113 -3.2096310222495683 C 1.4256501297519257 -2.9561053872901955 1.2146391611929748 -2.892489624033879 0.8340106649456989 -3.0192983933795396 C 1.0770776552090746 -3.114676086398042 1.0983809402752627 -3.474074820564692 1.4155039577445616 -3.2732284047594966 C 1.3097043815228444 -3.2096310222495683 1.2567494511728141 -3.1778384579100685 1.2566391666944734 -3.1778507117409953 Z" fill="#96c53e" transform="matrix(1,0,0,1,0,0)" fill-rule="evenodd"></path></g><g clip-path="url(#SvgjsClipPath318718ae91319-92ca-400a-a9ac-026252457771)"><path d=" M 3.2015794652220637 -3.347357954950981 C 3.2547365837823863 -3.283742191694663 3.275745776906328 -3.25199864267887 3.275745776906328 -3.25199864267887 C 3.1171750777984837 -3.1992459005391325 3.032164125744029 -3.30504547676085 3.0112652170984258 -3.558663015452174 C 3.127633722494481 -3.4423128908025085 3.339251255684307 -3.5163872987548226 3.296644685551931 -3.2837421916946634 C 3.2330289222956132 -3.3260179083920143 3.201579465222061 -3.3473579549509815 3.201579465222061 -3.3473579549509815 Z" fill="#96c53e" transform="matrix(1,0,0,1,0,0)" fill-rule="evenodd"></path></g><g clip-path="url(#SvgjsClipPath318718ae91319-92ca-400a-a9ac-026252457771)"><path d=" M 2.7895015119012356 -3.643104164368533 C 2.7576476784071033 -3.5903698029751863 2.7468949417688644 -3.569029756416219 2.7468949417688644 -3.569029756416219 C 2.8422542540409736 -3.548057324785055 2.905759732818953 -3.6113054731135703 2.9162183775149475 -3.769912933714195 C 2.8422542540409736 -3.695838525761881 2.7050052207457065 -3.7489221213366415 2.7259041293913095 -3.600810066924793 C 2.749074505172813 -3.6116842567560967 2.770506239842056 -3.625930785582471 2.7895015119012356 -3.6430857836221437 Z" fill="#96c53e" transform="matrix(1,0,0,1,0,0)" fill-rule="evenodd"></path></g><g clip-path="url(#SvgjsClipPath318718ae91319-92ca-400a-a9ac-026252457771)"><path d=" M 2.260669057510159 -3.03014303374973 C 2.387882203276405 -3.051041942395333 2.4510752093657486 -3.0616108715696706 2.4510752093657486 -3.0616108715696706 C 2.419625752292199 -2.807956571385567 2.2188712402189528 -2.7444694733539805 1.8381324594933361 -2.860746075018085 C 2.0707591858071037 -2.9665456512398025 2.1025027348228997 -3.3259811468992337 2.419625752292199 -3.114676086398041 C 2.3138261760704815 -3.0616108715696706 2.260669057510159 -3.030124653003339 2.260669057510159 -3.030124653003339 Z" fill="#96c53e" transform="matrix(1,0,0,1,0,0)" fill-rule="evenodd"></path></g></g><g><path d=" M 0.35100000000000003 0.7424999999999999 L 0.45 0.32099999999999984 L 0.522 0.6509999999999999 M 0.8025 0.9614999999999999 C 0.786 0.9015 0.6015 0.16499999999999992 0.6015 0.11849999999999983 C 0.6015 0.08999999999999986 0.6405 0.058499999999999774 0.6405 0.04049999999999998 C 0.6405 0.0239999999999998 0.6285000000000001 0.013499999999999845 0.6075 0.013499999999999845 L 0.297 0.013499999999999845 C 0.276 0.013499999999999845 0.264 0.0239999999999998 0.264 0.04049999999999998 C 0.264 0.058499999999999774 0.303 0.08999999999999986 0.303 0.11849999999999983 C 0.303 0.16499999999999992 0.099 0.966 0.08700000000000001 1.0125 C 0.0735 1.065 0.015 1.095 0.015 1.119 C 0.015 1.1355 0.027 1.146 0.048 1.146 L 0.315 1.146 C 0.339 1.146 0.34950000000000003 1.134 0.34950000000000003 1.119 C 0.34950000000000003 1.095 0.2955 1.0755 0.2955 1.017 L 0.2955 0.9764999999999999 L 0.5670000000000001 0.8294999999999999 C 0.5670000000000001 0.8294999999999999 0.6165 1.0319999999999998 0.6165 1.0425 C 0.6165 1.0785 0.5775 1.095 0.5775 1.119 C 0.5775 1.134 0.588 1.146 0.612 1.146 L 0.858 1.146 C 0.879 1.146 0.891 1.1355 0.891 1.119 C 0.891 1.095 0.8265 1.053 0.8025 0.9614999999999999 M 1.505990478515625 0.7289999999999999 C 1.505990478515625 0.7124999999999999 1.492490478515625 0.7004999999999999 1.480490478515625 0.7004999999999999 C 1.462490478515625 0.7004999999999999 1.345490478515625 0.7799999999999999 1.321490478515625 0.7979999999999998 C 1.309490478515625 0.8069999999999999 1.304990478515625 0.8144999999999999 1.304990478515625 0.837 L 1.304990478515625 0.9614999999999999 C 1.304990478515625 0.9719999999999999 1.295990478515625 0.9809999999999999 1.2854904785156251 0.9809999999999999 L 1.154990478515625 0.9809999999999999 C 1.1444904785156251 0.9809999999999999 1.135490478515625 0.9719999999999999 1.135490478515625 0.9614999999999999 L 1.135490478515625 0.19799999999999984 C 1.135490478515625 0.1874999999999999 1.1444904785156251 0.17849999999999988 1.154990478515625 0.17849999999999988 L 1.270490478515625 0.17849999999999988 C 1.280990478515625 0.17849999999999988 1.289990478515625 0.1874999999999999 1.289990478515625 0.19799999999999984 L 1.289990478515625 0.38849999999999985 C 1.289990478515625 0.4049999999999999 1.303490478515625 0.4169999999999999 1.315490478515625 0.4169999999999999 C 1.333490478515625 0.4169999999999999 1.4504904785156252 0.3374999999999999 1.474490478515625 0.3194999999999999 C 1.486490478515625 0.3104999999999999 1.490990478515625 0.30299999999999994 1.490990478515625 0.28049999999999986 L 1.490990478515625 0.13649999999999984 C 1.490990478515625 0.07499999999999996 1.4309904785156249 0.013499999999999845 1.342490478515625 0.013499999999999845 L 1.076990478515625 0.013499999999999845 C 0.995990478515625 0.013499999999999845 0.934490478515625 0.053999999999999826 0.934490478515625 0.12899999999999978 L 0.934490478515625 1.0305 C 0.934490478515625 1.1055 0.995990478515625 1.146 1.076990478515625 1.146 L 1.357490478515625 1.146 C 1.4489904785156251 1.146 1.505990478515625 1.0815 1.505990478515625 1.0245 M 1.9904736328125 0.17849999999999988 C 2.0834736328125 0.17849999999999988 2.0834736328125 0.1874999999999999 2.1134736328125 0.22049999999999992 C 2.1389736328125 0.25049999999999983 2.1509736328124998 0.26249999999999984 2.1704736328125 0.26249999999999984 C 2.1944736328125 0.26249999999999984 2.2109736328125003 0.24599999999999989 2.2109736328125003 0.22199999999999986 L 2.2109736328125003 0.038999999999999924 C 2.2109736328125003 0.014999999999999902 2.1944736328125 -2.220446049250313e-16 2.1704736328125 -2.220446049250313e-16 C 2.1614736328125 -2.220446049250313e-16 2.1464736328125 0.0014999999999998348 2.1209736328125 0.0044999999999999485 C 2.0909736328125 0.008999999999999897 2.0519736328125 0.013499999999999845 2.0279736328125 0.013499999999999845 L 1.7519736328125 0.013499999999999845 C 1.6454736328125 0.013499999999999845 1.6259736328125 -2.220446049250313e-16 1.6019736328125 -2.220446049250313e-16 C 1.5779736328125 -2.220446049250313e-16 1.5689736328125 0.010499999999999954 1.5689736328125 0.034499999999999975 L 1.5689736328125 0.23099999999999987 C 1.5689736328125 0.2489999999999999 1.5794736328125 0.26249999999999984 1.5959736328125 0.26249999999999984 C 1.6169736328125 0.26249999999999984 1.6304736328125 0.24749999999999994 1.6634736328125 0.21899999999999986 C 1.6964736328125 0.1904999999999999 1.7054736328125 0.17849999999999988 1.7894736328125 0.17849999999999988 L 1.7894736328125 0.9944999999999999 C 1.7894736328125 1.0545 1.7249736328125 1.089 1.7249736328125 1.1204999999999998 C 1.7249736328125 1.134 1.7369736328125 1.146 1.7579736328125 1.146 L 2.0219736328125 1.146 C 2.0429736328125 1.146 2.0549736328125 1.134 2.0549736328125 1.1204999999999998 C 2.0549736328125 1.089 1.9904736328125 1.0545 1.9904736328125 0.9944999999999999 M 2.6955 0.17849999999999988 C 2.7885 0.17849999999999988 2.7885 0.1874999999999999 2.8185 0.22049999999999992 C 2.844 0.25049999999999983 2.856 0.26249999999999984 2.8754999999999997 0.26249999999999984 C 2.8994999999999997 0.26249999999999984 2.916 0.24599999999999989 2.916 0.22199999999999986 L 2.916 0.038999999999999924 C 2.916 0.014999999999999902 2.8994999999999997 -2.220446049250313e-16 2.8754999999999997 -2.220446049250313e-16 C 2.8665 -2.220446049250313e-16 2.8514999999999997 0.0014999999999998348 2.826 0.0044999999999999485 C 2.796 0.008999999999999897 2.7569999999999997 0.013499999999999845 2.733 0.013499999999999845 L 2.457 0.013499999999999845 C 2.3505 0.013499999999999845 2.331 -2.220446049250313e-16 2.307 -2.220446049250313e-16 C 2.283 -2.220446049250313e-16 2.274 0.010499999999999954 2.274 0.034499999999999975 L 2.274 0.23099999999999987 C 2.274 0.2489999999999999 2.2845 0.26249999999999984 2.3009999999999997 0.26249999999999984 C 2.322 0.26249999999999984 2.3354999999999997 0.24749999999999994 2.3685 0.21899999999999986 C 2.4015 0.1904999999999999 2.4105 0.17849999999999988 2.4945 0.17849999999999988 L 2.4945 0.9944999999999999 C 2.4945 1.0545 2.4299999999999997 1.089 2.4299999999999997 1.1204999999999998 C 2.4299999999999997 1.134 2.4419999999999997 1.146 2.463 1.146 L 2.727 1.146 C 2.7479999999999998 1.146 2.76 1.134 2.76 1.1204999999999998 C 2.76 1.089 2.6955 1.0545 2.6955 0.9944999999999999 M 3.1364970703125 1.146 L 3.4319970703125 1.146 C 3.5234970703125 1.146 3.5804970703125 1.0785 3.5804970703125 1.017 L 3.5804970703125 0.14249999999999985 C 3.5804970703125 0.07649999999999979 3.5219970703125 0.013499999999999845 3.4319970703125 0.013499999999999845 L 3.1364970703125 0.013499999999999845 C 3.0569970703125 0.013499999999999845 2.9939970703125 0.05549999999999988 2.9939970703125 0.1349999999999998 L 2.9939970703125 1.0245 C 2.9939970703125 1.1024999999999998 3.0554970703125 1.146 3.1364970703125 1.146 M 3.1949970703125 0.9704999999999999 L 3.1949970703125 0.18899999999999983 C 3.1949970703125 0.18299999999999994 3.1994970703125 0.17849999999999988 3.2054970703125 0.17849999999999988 L 3.3689970703125 0.17849999999999988 C 3.3749970703125 0.17849999999999988 3.3794970703125 0.18299999999999994 3.3794970703125 0.18899999999999983 L 3.3794970703125 0.9704999999999999 C 3.3794970703125 0.9749999999999999 3.3749970703125 0.9809999999999999 3.3689970703125 0.9809999999999999 L 3.2054970703125 0.9809999999999999 C 3.1994970703125 0.9809999999999999 3.1949970703125 0.9749999999999999 3.1949970703125 0.9704999999999999 M 4.066509521484375 0.37049999999999994 C 4.066509521484375 0.3869999999999999 4.080009521484375 0.3989999999999999 4.092009521484375 0.3989999999999999 C 4.1100095214843755 0.3989999999999999 4.2270095214843755 0.3194999999999999 4.2510095214843755 0.3014999999999999 C 4.263009521484375 0.29249999999999987 4.267509521484375 0.2849999999999999 4.267509521484375 0.26249999999999984 L 4.267509521484375 0.13349999999999995 C 4.267509521484375 0.07199999999999984 4.207509521484376 0.011999999999999789 4.119009521484375 0.011999999999999789 L 3.8460095214843752 0.011999999999999789 C 3.7650095214843753 0.011999999999999789 3.703509521484375 0.050999999999999934 3.703509521484375 0.1259999999999999 L 3.703509521484375 1.0319999999999998 C 3.703509521484375 1.107 3.7650095214843753 1.146 3.8460095214843752 1.146 L 4.141509521484375 1.146 C 4.233009521484375 1.146 4.290009521484375 1.083 4.290009521484375 1.0259999999999998 L 4.290009521484375 0.5324999999999999 C 4.290009521484375 0.5129999999999999 4.279509521484375 0.5009999999999999 4.261509521484375 0.5009999999999999 C 4.233009521484375 0.5009999999999999 4.071009521484375 0.5714999999999999 4.035009521484375 0.5894999999999999 C 4.0170095214843755 0.5984999999999999 4.006509521484375 0.6074999999999999 4.006509521484375 0.6285 L 4.006509521484375 0.7619999999999999 C 4.006509521484375 0.7814999999999999 4.018509521484376 0.7934999999999999 4.032009521484375 0.7934999999999999 C 4.053009521484375 0.7934999999999999 4.089009521484375 0.7754999999999999 4.089009521484375 0.7754999999999999 L 4.089009521484375 0.9809999999999999 L 3.924009521484375 0.9809999999999999 C 3.913509521484375 0.9809999999999999 3.9045095214843752 0.9719999999999999 3.9045095214843752 0.9614999999999999 L 3.9045095214843752 0.19799999999999984 C 3.9045095214843752 0.1874999999999999 3.913509521484375 0.17849999999999988 3.924009521484375 0.17849999999999988 L 4.066509521484375 0.17849999999999988 M 4.94102197265625 1.146 C 4.9770219726562495 1.146 4.99202197265625 1.131 4.99202197265625 1.095 L 4.99202197265625 0.7785 C 4.99202197265625 0.7619999999999999 4.9785219726562495 0.7499999999999999 4.96652197265625 0.7499999999999999 C 4.94852197265625 0.7499999999999999 4.83152197265625 0.8294999999999999 4.80752197265625 0.8474999999999999 C 4.79552197265625 0.8564999999999999 4.7910219726562495 0.8639999999999999 4.7910219726562495 0.8864999999999998 L 4.7910219726562495 0.9809999999999999 L 4.66802197265625 0.9809999999999999 C 4.65752197265625 0.9809999999999999 4.6485219726562494 0.9734999999999999 4.6485219726562494 0.9629999999999999 L 4.6485219726562494 0.7949999999999999 L 4.82102197265625 0.6854999999999999 C 4.84352197265625 0.6719999999999999 4.84952197265625 0.6599999999999999 4.84952197265625 0.6344999999999998 L 4.84952197265625 0.49649999999999994 C 4.84952197265625 0.47999999999999987 4.83902197265625 0.46499999999999986 4.82102197265625 0.46499999999999986 C 4.80902197265625 0.46499999999999986 4.79552197265625 0.47099999999999986 4.78202197265625 0.47999999999999987 L 4.6485219726562494 0.564 L 4.6485219726562494 0.1964999999999999 C 4.6485219726562494 0.1874999999999999 4.65752197265625 0.17849999999999988 4.66802197265625 0.17849999999999988 L 4.7910219726562495 0.17849999999999988 L 4.7910219726562495 0.3434999999999999 C 4.7910219726562495 0.3599999999999999 4.80452197265625 0.3719999999999999 4.81652197265625 0.3719999999999999 C 4.834521972656249 0.3719999999999999 4.95152197265625 0.29249999999999987 4.975521972656249 0.27449999999999986 C 4.98752197265625 0.26549999999999985 4.99202197265625 0.2579999999999999 4.99202197265625 0.23549999999999993 L 4.99202197265625 0.06449999999999978 C 4.99202197265625 0.02849999999999997 4.9770219726562495 0.013499999999999845 4.94102197265625 0.013499999999999845 L 4.4160219726562495 0.013499999999999845 C 4.39502197265625 0.013499999999999845 4.38302197265625 0.025499999999999856 4.38302197265625 0.038999999999999924 C 4.38302197265625 0.07049999999999979 4.44752197265625 0.10499999999999998 4.44752197265625 0.16499999999999992 L 4.44752197265625 0.9944999999999999 C 4.44752197265625 1.0545 4.38302197265625 1.089 4.38302197265625 1.1204999999999998 C 4.38302197265625 1.134 4.39502197265625 1.146 4.4160219726562495 1.146 M 5.491527099609375 0.17849999999999988 C 5.5845270996093745 0.17849999999999988 5.5845270996093745 0.1874999999999999 5.614527099609375 0.22049999999999992 C 5.640027099609375 0.25049999999999983 5.652027099609375 0.26249999999999984 5.671527099609375 0.26249999999999984 C 5.695527099609375 0.26249999999999984 5.712027099609375 0.24599999999999989 5.712027099609375 0.22199999999999986 L 5.712027099609375 0.038999999999999924 C 5.712027099609375 0.014999999999999902 5.695527099609375 -2.220446049250313e-16 5.671527099609375 -2.220446049250313e-16 C 5.662527099609375 -2.220446049250313e-16 5.647527099609375 0.0014999999999998348 5.622027099609375 0.0044999999999999485 C 5.592027099609375 0.008999999999999897 5.553027099609375 0.013499999999999845 5.529027099609375 0.013499999999999845 L 5.253027099609375 0.013499999999999845 C 5.146527099609375 0.013499999999999845 5.127027099609375 -2.220446049250313e-16 5.103027099609375 -2.220446049250313e-16 C 5.079027099609375 -2.220446049250313e-16 5.070027099609375 0.010499999999999954 5.070027099609375 0.034499999999999975 L 5.070027099609375 0.23099999999999987 C 5.070027099609375 0.2489999999999999 5.080527099609375 0.26249999999999984 5.097027099609375 0.26249999999999984 C 5.118027099609375 0.26249999999999984 5.131527099609375 0.24749999999999994 5.164527099609375 0.21899999999999986 C 5.197527099609375 0.1904999999999999 5.206527099609375 0.17849999999999988 5.290527099609375 0.17849999999999988 L 5.290527099609375 0.9944999999999999 C 5.290527099609375 1.0545 5.226027099609375 1.089 5.226027099609375 1.1204999999999998 C 5.226027099609375 1.134 5.238027099609375 1.146 5.259027099609375 1.146 L 5.523027099609375 1.146 C 5.544027099609375 1.146 5.556027099609375 1.134 5.556027099609375 1.1204999999999998 C 5.556027099609375 1.089 5.491527099609375 1.0545 5.491527099609375 0.9944999999999999 M 6.463524169921875 0.16499999999999992 C 6.463524169921875 0.10499999999999998 6.528024169921875 0.07049999999999979 6.528024169921875 0.038999999999999924 C 6.528024169921875 0.025499999999999856 6.5160241699218755 0.013499999999999845 6.495024169921875 0.013499999999999845 L 6.231024169921875 0.013499999999999845 C 6.210024169921875 0.013499999999999845 6.198024169921875 0.025499999999999856 6.198024169921875 0.038999999999999924 C 6.198024169921875 0.07049999999999979 6.262524169921875 0.10499999999999998 6.262524169921875 0.16499999999999992 L 6.262524169921875 0.5789999999999998 L 6.025524169921875 0.69 L 6.025524169921875 0.16499999999999992 C 6.025524169921875 0.10499999999999998 6.090024169921875 0.07049999999999979 6.090024169921875 0.038999999999999924 C 6.090024169921875 0.025499999999999856 6.078024169921875 0.013499999999999845 6.057024169921875 0.013499999999999845 L 5.793024169921875 0.013499999999999845 C 5.772024169921875 0.013499999999999845 5.760024169921875 0.025499999999999856 5.760024169921875 0.038999999999999924 C 5.760024169921875 0.07049999999999979 5.824524169921875 0.10499999999999998 5.824524169921875 0.16499999999999992 L 5.824524169921875 0.9944999999999999 C 5.824524169921875 1.0545 5.760024169921875 1.089 5.760024169921875 1.1204999999999998 C 5.760024169921875 1.134 5.772024169921875 1.146 5.793024169921875 1.146 L 6.057024169921875 1.146 C 6.078024169921875 1.146 6.090024169921875 1.134 6.090024169921875 1.1204999999999998 C 6.090024169921875 1.089 6.025524169921875 1.0545 6.025524169921875 0.9944999999999999 L 6.025524169921875 0.9059999999999999 L 6.262524169921875 0.7949999999999999 L 6.262524169921875 0.9944999999999999 C 6.262524169921875 1.0545 6.198024169921875 1.089 6.198024169921875 1.1204999999999998 C 6.198024169921875 1.134 6.210024169921875 1.146 6.231024169921875 1.146 L 6.495024169921875 1.146 C 6.5160241699218755 1.146 6.528024169921875 1.134 6.528024169921875 1.1204999999999998 C 6.528024169921875 1.089 6.463524169921875 1.0545 6.463524169921875 0.9944999999999999 M 7.149027099609375 1.146 C 7.185027099609375 1.146 7.200027099609375 1.131 7.200027099609375 1.095 L 7.200027099609375 0.7785 C 7.200027099609375 0.7619999999999999 7.186527099609375 0.7499999999999999 7.174527099609375 0.7499999999999999 C 7.1565270996093755 0.7499999999999999 7.0395270996093755 0.8294999999999999 7.0155270996093755 0.8474999999999999 C 7.003527099609375 0.8564999999999999 6.999027099609375 0.8639999999999999 6.999027099609375 0.8864999999999998 L 6.999027099609375 0.9809999999999999 L 6.8760270996093755 0.9809999999999999 C 6.865527099609375 0.9809999999999999 6.856527099609375 0.9734999999999999 6.856527099609375 0.9629999999999999 L 6.856527099609375 0.7949999999999999 L 7.029027099609375 0.6854999999999999 C 7.051527099609375 0.6719999999999999 7.057527099609375 0.6599999999999999 7.057527099609375 0.6344999999999998 L 7.057527099609375 0.49649999999999994 C 7.057527099609375 0.47999999999999987 7.047027099609375 0.46499999999999986 7.029027099609375 0.46499999999999986 C 7.0170270996093755 0.46499999999999986 7.003527099609375 0.47099999999999986 6.990027099609375 0.47999999999999987 L 6.856527099609375 0.564 L 6.856527099609375 0.1964999999999999 C 6.856527099609375 0.1874999999999999 6.865527099609375 0.17849999999999988 6.8760270996093755 0.17849999999999988 L 6.999027099609375 0.17849999999999988 L 6.999027099609375 0.3434999999999999 C 6.999027099609375 0.3599999999999999 7.012527099609375 0.3719999999999999 7.024527099609375 0.3719999999999999 C 7.042527099609375 0.3719999999999999 7.159527099609376 0.29249999999999987 7.183527099609375 0.27449999999999986 C 7.195527099609375 0.26549999999999985 7.200027099609375 0.2579999999999999 7.200027099609375 0.23549999999999993 L 7.200027099609375 0.06449999999999978 C 7.200027099609375 0.02849999999999997 7.185027099609375 0.013499999999999845 7.149027099609375 0.013499999999999845 L 6.624027099609375 0.013499999999999845 C 6.603027099609375 0.013499999999999845 6.591027099609375 0.025499999999999856 6.591027099609375 0.038999999999999924 C 6.591027099609375 0.07049999999999979 6.655527099609375 0.10499999999999998 6.655527099609375 0.16499999999999992 L 6.655527099609375 0.9944999999999999 C 6.655527099609375 1.0545 6.591027099609375 1.089 6.591027099609375 1.1204999999999998 C 6.591027099609375 1.134 6.603027099609375 1.146 6.624027099609375 1.146 M 7.7220322265625 0.17849999999999988 C 7.7370322265625004 0.17849999999999988 7.7430322265625 0.1844999999999999 7.7430322265625 0.19799999999999984 L 7.7430322265625 0.45299999999999985 C 7.7430322265625 0.4634999999999999 7.740032226562501 0.4754999999999999 7.7070322265625 0.4979999999999999 L 7.5585322265625 0.5999999999999999 L 7.5585322265625 0.17849999999999988 M 7.9425322265625 1.011 C 7.9320322265625 0.9914999999999999 7.8690322265625 0.8324999999999999 7.8075322265625005 0.6555 C 7.8765322265625 0.6119999999999999 7.9440322265625 0.5729999999999998 7.9440322265625 0.5084999999999998 L 7.9440322265625 0.15599999999999992 C 7.9440322265625 0.05699999999999994 7.881032226562501 0.011999999999999789 7.7805322265625 0.011999999999999789 L 7.3260322265625 0.013499999999999845 C 7.3050322265625 0.013499999999999845 7.2930322265625005 0.025499999999999856 7.2930322265625005 0.038999999999999924 C 7.2930322265625005 0.07049999999999979 7.3575322265625 0.10499999999999998 7.3575322265625 0.16499999999999992 L 7.3575322265625 0.9944999999999999 C 7.3575322265625 1.0545 7.2930322265625005 1.089 7.2930322265625005 1.1204999999999998 C 7.2930322265625005 1.134 7.3050322265625 1.146 7.3260322265625 1.146 L 7.5900322265625 1.146 C 7.6110322265625 1.146 7.623032226562501 1.134 7.623032226562501 1.1204999999999998 C 7.623032226562501 1.089 7.5585322265625 1.0545 7.5585322265625 0.9944999999999999 L 7.5585322265625 0.8264999999999999 C 7.5585322265625 0.8174999999999999 7.5600322265625 0.813 7.5645322265625 0.8099999999999998 L 7.6200322265625005 0.7754999999999999 C 7.6200322265625005 0.7754999999999999 7.7250322265625 1.0439999999999998 7.7250322265625 1.0605 C 7.7250322265625 1.0935 7.6905322265625005 1.0979999999999999 7.6905322265625005 1.1204999999999998 C 7.6905322265625005 1.134 7.7040322265625 1.146 7.7250322265625 1.146 L 7.9845322265625 1.146 C 8.0010322265625 1.146 8.0160322265625 1.134 8.0160322265625 1.1204999999999998 C 8.0160322265625 1.0875 7.9875322265625 1.0904999999999998 7.9425322265625 1.011" fill="#282c0d" fill-rule="nonzero"></path></g><g></g></g><defs><clipPath id="SvgjsClipPath31873"><path d=" M 0.612246959748509 -7.205109007316178 h 6.806574195737355 v 6.955109007316178 h -6.806574195737355 Z"></path></clipPath><clipPath id="SvgjsClipPath318718ae91319-92ca-400a-a9ac-026252457771"><path d=" M 0.6122469597485084 -7.205109007316178 L 7.418821155485864 -7.205109007316178 L 7.418821155485864 -0.25 L 0.6122469597485077 -0.25 Z"></path></clipPath></defs></svg>